<svg width="640.000000pt" height="640.000000pt" viewBox="0 0 640.000000 640.000000" xmlns="http://www.w3.org/2000/svg">
  <g transform="translate(0.000000,640.000000) scale(0.100000,-0.100000)" fill="#fefefe" stroke="none">
    <path d="M0 3200 c0 -3200 0 -3200 3200 -3200 3200 0 3200 0 3200 3200 0 3200
0 3200 -3200 3200 -3200 0 -3200 0 -3200 -3200z m3530 2455 c1130 -178 1879
-1266 1634 -2374 -176 -792 -835 -1405 -1639 -1526 -204 -31 -206 -30 -203 87
3 103 3 103 90 110 1314 110 2032 1635 1289 2739 -747 1111 -2423 1011 -3030
-181 -563 -1108 172 -2457 1394 -2558 90 -7 90 -7 93 -111 3 -104 3 -104 -90
-98 -813 54 -1553 694 -1749 1513 -320 1339 854 2612 2211 2399z m-60 -316
c538 -73 1030 -440 1266 -944 445 -952 -124 -2080 -1161 -2305 -237 -51 -255
-46 -255 74 0 106 0 106 39 106 169 0 453 93 640 209 800 496 915 1623 233
2273 -740 703 -1955 433 -2336 -520 -339 -848 226 -1828 1124 -1949 63 -9 121
-17 128 -19 8 -2 12 -32 12 -105 0 -115 -26 -121 -270 -65 -1130 258 -1658
1541 -1032 2506 286 442 731 703 1287 754 57 5 237 -3 325 -15z m-1229 -969
c580 -437 1405 -443 1974 -15 117 88 110 90 189 -70 515 -1036 -500 -2185
-1594 -1803 -765 267 -1102 1170 -699 1874 51 88 34 87 130 14z m2699 -3085
c0 -85 0 -85 -1700 -85 -1700 0 -1700 0 -1700 85 0 85 0 85 1700 85 1700 0
1700 0 1700 -85z m-2 -277 c3 -88 3 -88 -1698 -88 -1700 0 -1700 0 -1700 83 0
46 3 87 7 90 3 4 767 6 1697 5 1691 -3 1691 -3 1694 -90z" />
  </g>
  <g transform="translate(0.000000,640.000000) scale(0.100000,-0.100000)" fill="#202054" stroke="none">
    <path d="M3043 5680 c-1119 -118 -1925 -1143 -1768 -2249 130 -911 884 -1627
1789 -1699 116 -9 108 -18 104 119 -3 104 -3 104 -93 111 -1218 101 -1953
1438 -1394 2538 605 1189 2265 1289 3010 181 739 -1097 22 -2610 -1289 -2719
-87 -7 -87 -7 -87 -121 0 -130 -5 -128 221 -95 1128 164 1886 1272 1638 2393
-215 969 -1149 1644 -2131 1541z" />
    <path d="M3135 5364 c-935 -87 -1586 -812 -1552 -1728 31 -821 698 -1528 1495
-1583 92 -6 92 -6 92 106 0 81 -3 113 -12 115 -7 2 -65 10 -128 19 -1235 166
-1656 1793 -660 2547 1109 838 2650 -240 2233 -1564 -171 -544 -740 -996
-1254 -996 -39 0 -39 0 -39 -116 0 -130 26 -138 274 -84 1224 267 1727 1728
928 2691 -329 397 -891 638 -1377 593z" />
    <path d="M2030 3598 c0 -15 82 -98 98 -98 23 0 12 25 -31 68 -43 42 -67 53
-67 30z" />
    <path d="M4397 3582 c-15 -15 -27 -33 -27 -39 0 -6 -9 -13 -20 -16 -11 -3 -20
-12 -20 -21 0 -23 31 -20 37 4 3 11 11 20 17 20 16 0 66 52 66 68 0 21 -25 13
-53 -16z" />
    <path d="M4275 3465 c-11 -13 -26 -24 -32 -25 -18 0 -16 -30 2 -30 8 0 15 5
15 10 0 6 6 10 13 10 14 0 47 35 47 50 0 18 -25 10 -45 -15z" />
    <path d="M4184 3395 c-4 -8 -12 -15 -20 -15 -8 0 -14 -4 -14 -10 0 -5 -7 -10
-15 -10 -8 0 -15 -4 -15 -10 0 -5 -7 -10 -15 -10 -8 0 -15 -7 -15 -15 0 -8 7
-15 15 -15 8 0 15 5 15 10 0 6 7 10 15 10 8 0 15 5 15 10 0 6 7 10 15 10 8 0
15 4 15 9 0 5 9 11 20 14 23 6 27 37 5 37 -9 0 -18 -7 -21 -15z" />
    <path d="M2570 3216 c0 -13 20 -26 41 -26 15 0 10 27 -7 34 -24 9 -34 7 -34
-8z" />
    <path d="M3873 3223 c-15 -5 -18 -33 -4 -33 21 0 41 13 41 26 0 14 -14 17 -37
7z" />
    <path d="M2800 3136 c0 -12 28 -25 53 -26 18 0 5 28 -15 34 -33 8 -38 8 -38
-8z" />
    <path d="M2920 3105 c0 -8 9 -15 20 -15 11 0 20 7 20 15 0 8 -9 15 -20 15 -11
0 -20 -7 -20 -15z" />
    <path d="M3520 3105 c0 -8 9 -15 20 -15 11 0 20 7 20 15 0 8 -9 15 -20 15 -11
0 -20 -7 -20 -15z" />
    <path d="M2990 3095 c0 -9 9 -15 25 -15 16 0 25 6 25 15 0 9 -9 15 -25 15 -16
0 -25 -6 -25 -15z" />
    <path d="M3070 3085 c0 -8 9 -15 20 -15 11 0 20 7 20 15 0 8 -9 15 -20 15 -11
0 -20 -7 -20 -15z" />
    <path d="M3370 3085 c0 -8 9 -15 20 -15 11 0 20 7 20 15 0 8 -9 15 -20 15 -11
0 -20 -7 -20 -15z" />
    <path d="M1530 1285 c0 -95 0 -95 1710 -95 1710 0 1710 0 1710 95 0 95 0 95
-1710 95 -1710 0 -1710 0 -1710 -95z" />
    <path d="M1537 1103 c-4 -3 -7 -48 -7 -100 0 -93 0 -93 1710 -93 1711 0 1711
0 1708 98 -3 97 -3 97 -1704 100 -935 1 -1704 -1 -1707 -5z" />
  </g>
  <g transform="translate(0.000000,640.000000) scale(0.100000,-0.100000)" fill="#4747e2" stroke="none">
    <path d="M3197 5363 c18 -2 50 -2 70 0 21 2 7 4 -32 4 -38 0 -55 -2 -38 -4z" />
    <path d="M2065 4878 c-80 -83 -80 -83 3 -3 76 74 87 85 79 85 -1 0 -38 -37
-82 -82z" />
    <path d="M4410 4875 c35 -36 67 -65 69 -65 3 0 -24 29 -59 65 -35 36 -67 65
-69 65 -3 0 24 -29 59 -65z" />
    <path d="M2220 4713 c-65 -68 -65 -68 3 -3 62 60 72 70 64 70 -1 0 -32 -30
-67 -67z" />
    <path d="M4250 4715 c30 -30 57 -55 59 -55 3 0 -19 25 -49 55 -30 30 -57 55
-59 55 -3 0 19 -25 49 -55z" />
    <path d="M2109 4380 c-125 -210 -252 -716 -167 -664 7 4 8 2 4 -5 -9 -14 12
-43 25 -35 5 3 6 -1 4 -8 -3 -8 18 -36 47 -63 29 -28 44 -39 33 -25 -20 25
-20 25 2 7 13 -12 19 -25 16 -35 -5 -11 -2 -14 9 -9 10 3 23 -3 35 -16 18 -22
18 -22 -7 -2 -14 11 -3 -4 25 -33 27 -29 55 -50 63 -47 7 2 11 1 8 -4 -8 -13
21 -34 35 -25 7 4 9 3 6 -3 -9 -14 19 -37 34 -27 7 4 9 3 6 -3 -9 -14 19 -37
34 -27 7 4 9 3 5 -4 -8 -14 79 -66 95 -56 8 4 9 3 5 -4 -8 -14 70 -56 86 -46
6 4 8 3 5 -3 -9 -14 48 -37 64 -27 8 5 9 3 4 -6 -6 -10 -4 -12 9 -7 9 4 15 3
11 -2 -7 -13 80 -45 96 -36 8 6 10 4 4 -5 -6 -10 -1 -12 18 -8 15 3 24 1 21
-3 -6 -11 42 -23 61 -15 11 4 14 2 9 -6 -5 -7 0 -9 14 -6 14 4 20 2 16 -4 -5
-7 4 -9 24 -6 19 3 29 0 25 -5 -4 -6 6 -8 26 -4 23 5 30 3 25 -5 -5 -8 6 -9
40 -5 34 5 45 4 40 -5 -5 -8 5 -9 34 -5 24 3 40 1 36 -4 -3 -5 58 -9 146 -9
84 0 149 4 146 9 -3 5 15 6 41 3 27 -3 44 -1 40 4 -3 5 12 8 35 6 28 -3 38 -1
34 7 -5 7 3 9 25 4 20 -4 30 -2 26 4 -4 5 6 8 25 5 17 -3 28 -1 25 4 -3 5 7 9
22 10 47 2 82 14 75 26 -5 7 -3 8 6 3 16 -10 91 15 83 28 -3 6 -1 7 6 3 15 -9
53 3 46 15 -3 5 2 6 11 2 10 -4 15 -2 11 4 -3 5 4 9 16 9 12 -1 21 4 20 10 -1
7 5 10 15 8 20 -5 165 73 157 85 -2 5 3 8 13 7 9 0 16 4 15 10 -1 7 5 11 15
10 9 0 16 4 15 10 -1 7 5 11 15 10 9 0 17 6 17 14 1 8 7 14 14 12 16 -3 43 17
36 28 -3 4 3 7 12 6 10 0 18 6 18 14 0 9 8 14 19 12 13 -3 17 1 13 12 -4 10
-1 13 7 10 12 -4 41 21 41 35 0 3 3 5 7 4 3 -1 48 41 99 95 92 97 92 97 86
207 -10 202 -91 438 -216 624 -7 11 -32 -4 -117 -68 -586 -440 -1413 -427
-1990 30 -76 60 -65 62 -115 -21z" />
    <path d="M1484 3705 c0 -60 1 -84 3 -52 2 32 2 81 0 110 -2 29 -3 3 -3 -58z" />
    <path d="M1803 3700 c0 -47 2 -66 4 -42 2 23 2 61 0 85 -2 23 -4 4 -4 -43z" />
    <path d="M4993 3705 c0 -38 2 -53 4 -32 2 20 2 52 0 70 -2 17 -4 1 -4 -38z" />
    <path d="M2220 2695 c35 -36 67 -65 69 -65 3 0 -24 29 -59 65 -35 36 -67 65
-69 65 -3 0 24 -29 59 -65z" />
    <path d="M1990 2607 c0 -1 35 -36 78 -77 77 -75 77 -75 2 3 -69 71 -80 82 -80
74z" />
    <path d="M4410 2533 c-55 -58 -55 -58 3 -3 31 30 57 56 57 57 0 8 -10 -1 -60
-54z" />
    <path d="M3142 2274 c15 -5 18 -22 21 -117 3 -112 3 -112 3 3 -1 107 -2 115
-21 117 -15 1 -16 1 -3 -3z" />
    <path d="M3123 1953 c38 -4 38 -4 35 -118 -2 -63 1 -111 5 -106 4 4 6 57 5
117 -3 109 -3 109 -43 110 -40 1 -40 1 -2 -3z" />
    <path d="M2388 1103 c468 -2 1236 -2 1705 0 468 1 85 2 -853 2 -938 0 -1321
-1 -852 -2z" />
  </g>
  <g transform="translate(0.000000,640.000000) scale(0.100000,-0.100000)" fill="#e00916" stroke="none">
    <path d="M1928 3714 c-8 -15 10 -204 28 -284 203 -925 1298 -1338 2064 -777
315 231 530 641 529 1007 0 65 0 65 -51 5 -218 -253 -525 -452 -808 -525 -19
-5 -53 -14 -75 -19 -567 -150 -1229 71 -1632 543 -28 32 -52 55 -55 50z" />
  </g>
</svg>