<?xml version="1.0" standalone="no"?>
<!DOCTYPE svg PUBLIC "-//W3C//DTD SVG 20010904//EN"
 "http://www.w3.org/TR/2001/REC-SVG-20010904/DTD/svg10.dtd">
<svg version="1.0" xmlns="http://www.w3.org/2000/svg"
 width="640.000000pt" height="640.000000pt" viewBox="0 0 640.000000 640.000000"
 preserveAspectRatio="xMidYMid meet">

<g transform="translate(0.000000,640.000000) scale(0.100000,-0.100000)"
fill="#000000" stroke="none">
<path d="M3075 5679 c-776 -60 -1465 -601 -1713 -1344 -80 -239 -108 -436 -99
-700 9 -265 54 -468 156 -709 155 -366 446 -701 796 -916 241 -149 582 -258
863 -277 l92 -6 0 111 c0 91 -3 112 -14 112 -49 0 -266 35 -349 55 -499 126
-930 481 -1153 950 -194 409 -221 893 -73 1324 43 125 149 332 227 441 86 122
290 326 412 412 534 377 1224 432 1800 143 519 -260 873 -751 956 -1324 22
-158 16 -433 -15 -583 -151 -746 -750 -1304 -1507 -1403 -63 -8 -122 -15 -130
-15 -11 0 -14 -21 -14 -110 l0 -110 51 0 c72 0 247 27 359 55 568 142 1046
532 1301 1059 475 983 66 2162 -916 2641 -226 110 -461 174 -719 195 -141 11
-163 11 -311 -1z"/>
<path d="M2975 5344 c-599 -93 -1120 -537 -1310 -1118 -62 -189 -79 -305 -79
-526 0 -173 3 -209 27 -321 72 -339 229 -627 471 -863 270 -262 638 -432 1004
-462 l82 -7 0 110 c0 122 -1 123 -65 123 -112 0 -345 65 -490 137 -296 147
-521 371 -661 658 -86 178 -128 329 -143 527 -35 444 155 901 494 1187 204
174 417 276 680 328 124 24 386 24 510 0 616 -120 1077 -604 1166 -1226 15
-107 6 -369 -16 -471 -76 -347 -273 -654 -555 -866 -171 -130 -442 -241 -644
-265 -152 -18 -136 -3 -136 -130 l0 -112 83 8 c361 31 720 194 985 449 302
291 467 629 513 1051 38 355 -69 770 -277 1077 -73 107 -88 125 -192 232 -259
263 -576 426 -937 481 -124 19 -387 18 -510 -1z"/>
<path d="M2132 4407 c-82 -118 -158 -318 -188 -490 -20 -112 -14 -363 11 -472
59 -265 171 -470 360 -661 181 -184 397 -301 661 -360 115 -25 342 -30 465 -9
548 91 977 502 1085 1039 23 117 29 336 10 446 -30 183 -94 360 -180 493 l-36
58 -68 -54 c-313 -253 -745 -383 -1145 -347 -334 30 -643 152 -889 353 l-57
47 -29 -43z"/>
<path d="M1530 1285 l0 -95 1710 0 1710 0 0 95 0 95 -1710 0 -1710 0 0 -95z"/>
<path d="M1530 1005 l0 -95 1710 0 1710 0 0 95 0 95 -1710 0 -1710 0 0 -95z"/>
</g>
</svg>
