<?xml version="1.0" standalone="no"?>
<!DOCTYPE svg PUBLIC "-//W3C//DTD SVG 20010904//EN"
 "http://www.w3.org/TR/2001/REC-SVG-20010904/DTD/svg10.dtd">
<svg version="1.0" xmlns="http://www.w3.org/2000/svg"
 width="154.000000pt" height="131.000000pt" viewBox="0 0 154.000000 131.000000"
 preserveAspectRatio="xMidYMid meet">

<g transform="translate(0.000000,131.000000) scale(0.100000,-0.100000)"
fill="#000000" stroke="none">
<path d="M684 1101 c-99 -26 -186 -100 -232 -199 -22 -46 -26 -72 -27 -137 0
-71 4 -88 33 -147 51 -104 151 -180 257 -195 41 -5 45 -4 45 16 0 16 -6 21
-25 21 -85 0 -200 83 -246 177 -33 69 -33 188 0 256 69 142 235 212 384 161
61 -21 141 -94 174 -158 22 -42 26 -64 26 -131 0 -67 -4 -89 -26 -131 -46 -91
-163 -174 -244 -174 -17 0 -23 -6 -23 -21 0 -20 4 -21 47 -14 110 16 223 107
263 211 64 168 -3 349 -160 433 -51 27 -75 34 -138 37 -42 2 -91 0 -108 -5z"/>
<path d="M717 1049 c-61 -9 -126 -48 -171 -100 -99 -116 -84 -297 32 -400 63
-55 182 -91 182 -54 0 8 -12 17 -27 21 -128 27 -212 125 -213 247 0 98 45 175
132 222 41 23 64 28 117 28 81 0 132 -24 188 -87 129 -147 48 -368 -149 -410
-34 -8 -38 -36 -5 -36 79 0 174 65 222 151 26 47 30 64 30 134 0 63 -5 89 -23
122 -34 65 -76 107 -134 135 -62 29 -114 37 -181 27z"/>
<path d="M556 844 c-20 -59 -20 -99 -1 -155 19 -54 67 -105 120 -130 52 -24
138 -24 191 0 94 43 150 158 125 258 -19 74 -23 76 -93 40 -51 -27 -73 -32
-127 -32 -62 0 -101 13 -192 62 -4 2 -14 -17 -23 -43z"/>
<path d="M470 345 c0 -13 40 -15 300 -15 260 0 300 2 300 15 0 13 -40 15 -300
15 -260 0 -300 -2 -300 -15z"/>
<path d="M470 295 c0 -13 40 -15 300 -15 260 0 300 2 300 15 0 13 -40 15 -300
15 -260 0 -300 -2 -300 -15z"/>
</g>
</svg>
